<?xml version="1.0" encoding="UTF-8"?>
<svg version="1.1" xmlns="http://www.w3.org/2000/svg" width="500" height="500">
<path d="M0 0 C165 0 330 0 500 0 C500 165 500 330 500 500 C335 500 170 500 0 500 C0 335 0 170 0 0 Z " fill="#FEFEFE" transform="translate(0,0)"/>
<path d="M0 0 C11.50274157 9.90928819 20.09877749 23.71888303 21.51782227 39.10058594 C21.61559968 41.44624349 21.64171236 43.77739026 21.625 46.125 C21.61936035 46.959104 21.6137207 47.79320801 21.60791016 48.65258789 C21.28506037 65.17066977 15.01668836 78.31182596 3.3125 89.875 C2.69761719 90.51179688 2.08273438 91.14859375 1.44921875 91.8046875 C-9.27419999 102.13774624 -24.05826632 106.84543048 -38.6875 107.25 C-55.54881689 106.78370252 -70.19255325 100.57748613 -82.0625 88.69140625 C-93.51654384 76.40217171 -99.31637804 60.8698683 -98.9296875 44.0703125 C-97.59660886 26.48227493 -90.38678633 12.69483437 -77.6875 0.875 C-55.11158624 -18.25474624 -23.12371304 -17.75283672 0 0 Z " fill="#24C4B2" transform="translate(250.6875,146.125)"/>
<path d="M0 0 C3.5731886 2.79029896 6.8158426 5.77639286 10 9 C10.63550781 9.61359375 11.27101563 10.2271875 11.92578125 10.859375 C23.57836829 22.95119481 27.5292435 39.18100891 27.41992188 55.4987793 C26.91873614 72.5471261 19.69820176 87.30372297 7.83203125 99.33984375 C3.2918965 103.60443929 -1.49878396 107.15141574 -7.01098633 110.06176758 C-12.7181982 113.09335885 -17.53017344 116.62262549 -22.4375 120.8125 C-23.91499718 122.0512196 -25.39286042 123.28950273 -26.87109375 124.52734375 C-27.5760498 125.12144043 -28.28100586 125.71553711 -29.00732422 126.32763672 C-31.64649602 128.54257508 -34.31519732 130.71556878 -37 132.875 C-37.763125 133.49117187 -38.52625 134.10734375 -39.3125 134.7421875 C-41 136 -41 136 -42 136 C-42 129.73 -42 123.46 -42 117 C-44.97 116.67 -47.94 116.34 -51 116 C-54.43359375 115.09765625 -54.43359375 115.09765625 -57.4375 114.0625 C-58.95150391 113.55396484 -58.95150391 113.55396484 -60.49609375 113.03515625 C-63 112 -63 112 -65 110 C-64.09378906 109.45472656 -63.18757812 108.90945312 -62.25390625 108.34765625 C-46.55016194 98.71372233 -35.8188264 87.1600524 -30.69140625 68.97265625 C-26.52506463 51.05974115 -29.31304029 33.6452831 -39 18 C-41.75693412 14.38183332 -44.73245741 11.15994587 -48 8 C-48.67160156 7.34257812 -49.34320313 6.68515625 -50.03515625 6.0078125 C-54.58612843 1.79160368 -59.46763285 -1.22101002 -65 -4 C-48.22505975 -18.78397512 -16.44260748 -10.990585 0 0 Z " fill="#21C4B1" transform="translate(303,140)"/>
<path d="M0 0 C7.92 0 15.84 0 24 0 C25.32 8.91 26.64 17.82 28 27 C21.07 27 14.14 27 7 27 C2.44213978 17.5244485 0 10.54061397 0 0 Z " fill="#FCFEFE" transform="translate(155,194)"/>
<path d="M0 0 C6.93 0 13.86 0 21 0 C20.71125 1.505625 20.4225 3.01125 20.125 4.5625 C18.82426125 11.67939915 17.92153263 18.8252102 17 26 C9.08 26 1.16 26 -7 26 C-6.64806443 16.14580398 -4.38760951 8.77521902 0 0 Z " fill="#FEFEFE" transform="translate(162,165)"/>
<path d="M0 0 C9.57 0 19.14 0 29 0 C29 0.99 29 1.98 29 3 C26.03 3 23.06 3 20 3 C20.62286841 5.68800977 21.24823207 8.3753992 21.875 11.0625 C22.04902344 11.81466797 22.22304687 12.56683594 22.40234375 13.34179688 C22.57636719 14.08623047 22.75039062 14.83066406 22.9296875 15.59765625 C23.16534424 16.61098022 23.16534424 16.61098022 23.40576172 17.64477539 C24.19743739 20.78253019 25.11097868 23.88842538 26 27 C18.74 27 11.48 27 4 27 C1.06289932 17.80559788 0.41010126 9.59636952 0 0 Z " fill="#FBFEFD" transform="translate(182,194)"/>
<path d="M0 0 C8.25 0 16.5 0 25 0 C25 0.99 25 1.98 25 3 C23.68 3.33 22.36 3.66 21 4 C20.34895849 6.35283375 19.70407878 8.70708449 19.0625 11.0625 C18.88009766 11.71927734 18.69769531 12.37605469 18.50976562 13.05273438 C18.33251953 13.70693359 18.15527344 14.36113281 17.97265625 15.03515625 C17.81031494 15.6269165 17.64797363 16.21867676 17.48071289 16.82836914 C16.81140712 19.85197242 16.43795313 22.93432812 16 26 C9.4 26 2.8 26 -4 26 C-4 16.99392302 -4 16.99392302 -3.37890625 13.7890625 C-3.18264648 12.75845703 -3.18264648 12.75845703 -2.98242188 11.70703125 C-2.84384766 11.01996094 -2.70527344 10.33289063 -2.5625 9.625 C-2.42779297 8.91472656 -2.29308594 8.20445312 -2.15429688 7.47265625 C-1.14710307 2.29420613 -1.14710307 2.29420613 0 0 Z " fill="#FEFEFE" transform="translate(186,165)"/>
<path d="M0 0 C0.02886751 4.14581887 0.04675327 8.29161216 0.0625 12.4375 C0.07087891 13.62150391 0.07925781 14.80550781 0.08789062 16.02539062 C0.09272461 17.71245117 0.09272461 17.71245117 0.09765625 19.43359375 C0.10551147 20.99678345 0.10551147 20.99678345 0.11352539 22.59155273 C0 25 0 25 -1 26 C-2.70772358 26.08713831 -4.41898649 26.10700007 -6.12890625 26.09765625 C-7.68061523 26.09282227 -7.68061523 26.09282227 -9.26367188 26.08789062 C-10.35228516 26.07951172 -11.44089844 26.07113281 -12.5625 26.0625 C-14.2012207 26.05573242 -14.2012207 26.05573242 -15.87304688 26.04882812 C-18.58208495 26.03699826 -21.29101599 26.02051543 -24 26 C-20.75255612 15.33981746 -15.860579 6.8091672 -6 1 C-3 0 -3 0 0 0 Z " fill="#FEFEFE" transform="translate(211,136)"/>
<path d="M0 0 C7.92 0 15.84 0 24 0 C24 8.58 24 17.16 24 26 C16.78864977 24.7981083 12.95182671 22.54760824 8.296875 16.953125 C4.42483297 11.43839847 2.6255765 6.56394125 0 0 Z " fill="#FEFEFE" transform="translate(187,224)"/>
<path d="M0 0 C-0.76183594 0.85658203 -0.76183594 0.85658203 -1.5390625 1.73046875 C-7.26984392 8.4807712 -10.53586288 14.85927777 -14 23 C-20.6 23 -27.2 23 -34 23 C-27.93068188 13.89602282 -12.7339237 -4.24464123 0 0 Z " fill="#FCFEFE" transform="translate(198,139)"/>
<path d="M0 0 C6.27 0 12.54 0 19 0 C22.6875 7.625 22.6875 7.625 23.81518555 9.99072266 C26.50805066 15.46258012 29.67338159 19.67338159 34 24 C21.17419616 23.41700892 11.48824713 14.79377089 3 6 C0 2.39490446 0 2.39490446 0 0 Z " fill="#FCFEFE" transform="translate(165,224)"/>
<path d="M0 0 C7.59 0 15.18 0 23 0 C23 0.66 23 1.32 23 2 C16.07 2 9.14 2 2 2 C2.74244715 10.03690124 2.74244715 10.03690124 7.5625 15 C8.38878906 15.763125 9.21507812 16.52625 10.06640625 17.3125 C10.70449219 17.869375 11.34257812 18.42625 12 19 C6.62903226 24.66935484 6.62903226 24.66935484 3 26 C2.01 26 1.02 26 0 26 C0 17.42 0 8.84 0 0 Z " fill="#FEFEFE" transform="translate(214,224)"/>
<path d="M0 0 C7.92 0 15.84 0 24 0 C24 0.99 24 1.98 24 3 C17.07 3 10.14 3 3 3 C2.814375 6.1865625 2.814375 6.1865625 2.625 9.4375 C2.22395283 15.16259359 1.4350411 20.45117441 0 26 C-1.32 26.33 -2.64 26.66 -4 27 C-3.79503906 25.80503906 -3.59007812 24.61007813 -3.37890625 23.37890625 C-3.1066376 21.77346009 -2.83450974 20.16799005 -2.5625 18.5625 C-2.42779297 17.77939453 -2.29308594 16.99628906 -2.15429688 16.18945312 C-2.02216797 15.40634766 -1.89003906 14.62324219 -1.75390625 13.81640625 C-1.63345947 13.10943604 -1.5130127 12.40246582 -1.38891602 11.67407227 C-0.82490106 7.79607113 -0.43275924 3.89483313 0 0 Z " fill="#F2FBFA" transform="translate(245,194)"/>
<path d="M0 0 C6.57043463 1.09507244 7.48519842 1.80768425 12 6 C11.06409496 7.1055189 10.12620142 8.20935453 9.1875 9.3125 C8.40439453 10.23482422 8.40439453 10.23482422 7.60546875 11.17578125 C6 13 6 13 4.34375 14.40625 C2.48433245 16.6116057 2.49729775 18.34161468 2.3125 21.1875 C2.24675781 22.08855469 2.18101562 22.98960937 2.11328125 23.91796875 C2.07589844 24.60503906 2.03851563 25.29210937 2 26 C1.34 26 0.68 26 0 26 C0 17.42 0 8.84 0 0 Z " fill="#FEFEFE" transform="translate(214,136)"/>
<path d="M0 0 C6.8359375 -0.29296875 6.8359375 -0.29296875 9 0 C11.56687367 3.8503105 10.83288724 5.58569763 10 10 C9.34 10 8.68 10 8 10 C8.7425 11.175625 8.7425 11.175625 9.5 12.375 C11 15 11 15 11 17 C10.34 17 9.68 17 9 17 C8.54625 16.195625 8.0925 15.39125 7.625 14.5625 C6.26579005 11.84763807 6.26579005 11.84763807 3.8125 11.1875 C3.214375 11.125625 2.61625 11.06375 2 11 C2 12.98 2 14.96 2 17 C1.34 17 0.68 17 0 17 C0 11.39 0 5.78 0 0 Z " fill="#182356" transform="translate(77,316)"/>
<path d="M0 0 C9.24 0 18.48 0 28 0 C28 0.99 28 1.98 28 3 C19.42 3 10.84 3 2 3 C2 10.92 2 18.84 2 27 C1.34 27 0.68 27 0 27 C0 18.09 0 9.18 0 0 Z " fill="#F4FCFB" transform="translate(214,194)"/>
<path d="M0 0 C3.458176 -0.0868329 6.91607344 -0.14033282 10.375 -0.1875 C11.35984375 -0.21263672 12.3446875 -0.23777344 13.359375 -0.26367188 C14.77089844 -0.27817383 14.77089844 -0.27817383 16.2109375 -0.29296875 C17.08024902 -0.3086792 17.94956055 -0.32438965 18.84521484 -0.34057617 C19.55629395 -0.22818604 20.26737305 -0.1157959 21 0 C21.66 0.99 22.32 1.98 23 3 C16.73 3 10.46 3 4 3 C4.66 5.31 5.32 7.62 6 10 C6.31884766 12.26342773 6.31884766 12.26342773 6.4140625 14.18359375 C6.45273438 14.88291016 6.49140625 15.58222656 6.53125 16.30273438 C6.5621875 17.00720703 6.593125 17.71167969 6.625 18.4375 C6.66367188 19.16904297 6.70234375 19.90058594 6.7421875 20.65429688 C6.83533984 22.43583532 6.91870286 24.21788122 7 26 C6.01 26 5.02 26 4 26 C3.91435791 25.39003174 3.82871582 24.78006348 3.74047852 24.15161133 C3.34930936 21.37169549 2.95592556 18.59209736 2.5625 15.8125 C2.42779297 14.85279297 2.29308594 13.89308594 2.15429688 12.90429688 C2.02216797 11.97294922 1.89003906 11.04160156 1.75390625 10.08203125 C1.63345947 9.22843018 1.5130127 8.3748291 1.38891602 7.49536133 C0.99677852 4.97933036 0.51734627 2.49302336 0 0 Z " fill="#F9FDFD" transform="translate(241,165)"/>
<path d="M0 0 C8.25 0 16.5 0 25 0 C25 0.99 25 1.98 25 3 C17.41 3 9.82 3 2 3 C2 10.59 2 18.18 2 26 C1.34 26 0.68 26 0 26 C0 17.42 0 8.84 0 0 Z " fill="#FEFEFE" transform="translate(214,165)"/>
<path d="M0 0 C6.6 0 13.2 0 20 0 C19.67 0.66 19.34 1.32 19 2 C13.39 2 7.78 2 2 2 C1.67 3.65 1.34 5.3 1 7 C-1.45605892 12.96066608 -4.36571803 18.48157508 -9 23 C-11.8125 23.875 -11.8125 23.875 -14 24 C-13.43732422 23.27296875 -13.43732422 23.27296875 -12.86328125 22.53125 C-7.22972283 15.15228179 -3.29456051 8.7854947 0 0 Z " fill="#FBFEFD" transform="translate(240,224)"/>
<path d="M0 0 C0.99 0.33 1.98 0.66 3 1 C4.38671875 3.8359375 4.38671875 3.8359375 5.6875 7.375 C6.12449219 8.53773438 6.56148437 9.70046875 7.01171875 10.8984375 C8 14 8 14 8 17 C7.34 17 6.68 17 6 17 C5.67 16.01 5.34 15.02 5 14 C2.36 14 -0.28 14 -3 14 C-3.33 14.99 -3.66 15.98 -4 17 C-4.66 17 -5.32 17 -6 17 C-4.33846988 11.14340094 -2.52958084 5.5409866 0 0 Z " fill="#252F5E" transform="translate(189,316)"/>
<path d="M0 0 C0.99 0 1.98 0 3 0 C4.00419637 2.4566947 5.00350501 4.91518353 6 7.375 C6.28617188 8.07367188 6.57234375 8.77234375 6.8671875 9.4921875 C9 14.7734375 9 14.7734375 9 17 C8.34 17 7.68 17 7 17 C6.67 15.68 6.34 14.36 6 13 C3.03 13 0.06 13 -3 13 C-3.33 14.32 -3.66 15.64 -4 17 C-4.66 16.67 -5.32 16.34 -6 16 C-4.02 10.72 -2.04 5.44 0 0 Z " fill="#242E5E" transform="translate(61,316)"/>
<path d="M0 0 C3.20252983 0.54511146 4.69197237 1.16810592 6.9375 3.5 C6.9375 4.49 6.9375 5.48 6.9375 6.5 C6.2775 6.5 5.6175 6.5 4.9375 6.5 C4.2775 5.51 3.6175 4.52 2.9375 3.5 C-0.0625 3 -0.0625 3 -3.0625 3.5 C-5.45048682 6.40585687 -5.45048682 6.40585687 -4.75 10.125 C-4.42136877 13.32504312 -4.42136877 13.32504312 -3.0625 14.5 C-0.10432893 14.75005386 -0.10432893 14.75005386 2.9375 14.5 C3.5975 13.84 4.2575 13.18 4.9375 12.5 C3.2875 12.17 1.6375 11.84 -0.0625 11.5 C-0.0625 10.84 -0.0625 10.18 -0.0625 9.5 C2.5775 9.5 5.2175 9.5 7.9375 9.5 C6.47955607 15.08878505 6.47955607 15.08878505 4.125 16.875 C1.48398796 17.62957487 -0.33015062 17.90985241 -3.0625 17.5 C-6.29610026 14.80533312 -7.87780112 12.8852416 -8.4375 8.6875 C-8.0625 5.5 -8.0625 5.5 -5.9375 2.625 C-3.0625 0.5 -3.0625 0.5 0 0 Z " fill="#2A3362" transform="translate(348.0625,315.5)"/>
<path d="M0 0 C2.375 1.5 2.375 1.5 4 3 C3.67 3.99 3.34 4.98 3 6 C2.649375 5.505 2.29875 5.01 1.9375 4.5 C-0.94374289 2.26936034 -3.47009026 2.80019379 -7 3 C-7 6.63 -7 10.26 -7 14 C-2.20691658 14.46522293 -2.20691658 14.46522293 1.9375 12.5 C2.288125 12.005 2.63875 11.51 3 11 C3.66 11.33 4.32 11.66 5 12 C2.45258545 14.99695829 0.89347389 16.79524557 -3 17.6875 C-6.4304075 16.90136495 -8.06465826 15.62850664 -10.1484375 12.78515625 C-11.67797525 9.57873995 -11.03339347 7.28254395 -10 4 C-7.17167813 -0.08535381 -4.86152099 -0.70897181 0 0 Z " fill="#3D4670" transform="translate(412,316)"/>
<path d="M0 0 C2.375 1.5 2.375 1.5 4 3 C3.67 3.99 3.34 4.98 3 6 C2.649375 5.505 2.29875 5.01 1.9375 4.5 C-0.94374289 2.26936034 -3.47009026 2.80019379 -7 3 C-7 6.63 -7 10.26 -7 14 C-2.20691658 14.46522293 -2.20691658 14.46522293 1.9375 12.5 C2.288125 12.005 2.63875 11.51 3 11 C3.66 11.33 4.32 11.66 5 12 C2.45258545 14.99695829 0.89347389 16.79524557 -3 17.6875 C-6.4304075 16.90136495 -8.06465826 15.62850664 -10.1484375 12.78515625 C-11.67797525 9.57873995 -11.03339347 7.28254395 -10 4 C-7.17167813 -0.08535381 -4.86152099 -0.70897181 0 0 Z " fill="#3D4670" transform="translate(161,316)"/>
<path d="M0 0 C3.87961647 3.87961647 6.2157554 6.56583267 9 11 C9.33 7.37 9.66 3.74 10 0 C10.66 0 11.32 0 12 0 C12 5.61 12 11.22 12 17 C8.05124418 15.68374806 7.45007287 13.94634602 5.3125 10.4375 C4.37857422 8.91962891 4.37857422 8.91962891 3.42578125 7.37109375 C2.95527344 6.58863281 2.48476562 5.80617188 2 5 C1.67 8.96 1.34 12.92 1 17 C0.67 17 0.34 17 0 17 C0 11.39 0 5.78 0 0 Z " fill="#2D3765" transform="translate(243,316)"/>
<path d="M0 0 C3.94875582 1.31625194 4.54992713 3.05365398 6.6875 6.5625 C7.31011719 7.57441406 7.93273437 8.58632813 8.57421875 9.62890625 C9.04472656 10.41136719 9.51523437 11.19382812 10 12 C10.33 8.04 10.66 4.08 11 0 C11.33 0 11.66 0 12 0 C12 5.61 12 11.22 12 17 C8.12038353 13.12038353 5.7842446 10.43416733 3 6 C2.67 9.63 2.34 13.26 2 17 C1.34 17 0.68 17 0 17 C0 11.39 0 5.78 0 0 Z " fill="#1E285A" transform="translate(381,316)"/>
<path d="M0 0 C2.97 0 5.94 0 9 0 C9 0.66 9 1.32 9 2 C6.69 2 4.38 2 2 2 C2 3.98 2 5.96 2 8 C4.31 8 6.62 8 9 8 C9 8.66 9 9.32 9 10 C6.69 10 4.38 10 2 10 C2 11.65 2 13.3 2 15 C4.64 15 7.28 15 10 15 C10 15.66 10 16.32 10 17 C6.7 17 3.4 17 0 17 C0 11.39 0 5.78 0 0 Z " fill="#283261" transform="translate(424,316)"/>
<path d="M0 0 C0.99 0 1.98 0 3 0 C4.65 4.62 6.3 9.24 8 14 C7.34 14 6.68 14 6 14 C5.67 13.34 5.34 12.68 5 12 C2.67843403 11.59270772 0.3431213 11.25561323 -2 11 C-2.33 11.99 -2.66 12.98 -3 14 C-4.25955231 10.22134307 -3.48087189 8.96588214 -2.0625 5.3125 C-1.68222656 4.31863281 -1.30195313 3.32476562 -0.91015625 2.30078125 C-0.60980469 1.54152344 -0.30945313 0.78226562 0 0 Z " fill="#3AA99C" transform="translate(250,353)"/>
<path d="M0 0 C7.47861225 1.87497971 10.16062772 6.65278242 14 13 C18 21.23463687 18 21.23463687 18 25 C17.01 25 16.02 25 15 25 C14.72027344 24.23816406 14.44054687 23.47632813 14.15234375 22.69140625 C11.34074583 15.44995952 8.01363175 9.89279941 3 4 C1.99117753 2.67332935 0.9884607 1.34191029 0 0 Z " fill="#F5FCFB" transform="translate(225,137)"/>
<path d="M0 0 C2.97 0 5.94 0 9 0 C9 0.66 9 1.32 9 2 C6.69 2 4.38 2 2 2 C2 3.98 2 5.96 2 8 C3.98 8 5.96 8 8 8 C8 8.66 8 9.32 8 10 C6.02 10 4.04 10 2 10 C2 11.65 2 13.3 2 15 C4.31 15 6.62 15 9 15 C9 15.66 9 16.32 9 17 C6.03 17 3.06 17 0 17 C0 11.39 0 5.78 0 0 Z " fill="#1D2859" transform="translate(364,316)"/>
<path d="M0 0 C2.97 0 5.94 0 9 0 C9 0.66 9 1.32 9 2 C6.69 2 4.38 2 2 2 C2 3.98 2 5.96 2 8 C3.98 8 5.96 8 8 8 C8 8.66 8 9.32 8 10 C6.02 10 4.04 10 2 10 C2 11.65 2 13.3 2 15 C4.31 15 6.62 15 9 15 C9 15.66 9 16.32 9 17 C6.03 17 3.06 17 0 17 C0 11.39 0 5.78 0 0 Z " fill="#0F1A4F" transform="translate(281,316)"/>
<path d="M0 0 C0.33 0 0.66 0 1 0 C1 1.98 1 3.96 1 6 C3.31 6 5.62 6 8 6 C8 4.02 8 2.04 8 0 C8.66 0 9.32 0 10 0 C10 4.62 10 9.24 10 14 C9.34 14 8.68 14 8 14 C8 12.02 8 10.04 8 8 C6.02 8 4.04 8 2 8 C2 9.98 2 11.96 2 14 C1.34 14 0.68 14 0 14 C0 9.38 0 4.76 0 0 Z " fill="#39A99B" transform="translate(218,353)"/>
<path d="M0 0 C2.97 0 5.94 0 9 0 C9 0.66 9 1.32 9 2 C6.69 2 4.38 2 2 2 C2 3.98 2 5.96 2 8 C4.31 8 6.62 8 9 8 C9 8.66 9 9.32 9 10 C6.69 10 4.38 10 2 10 C2 12.31 2 14.62 2 17 C1.34 17 0.68 17 0 17 C0 11.39 0 5.78 0 0 Z " fill="#2E3765" transform="translate(124,316)"/>
<path d="M0 0 C3.96 0 7.92 0 12 0 C12 0.66 12 1.32 12 2 C10.35 2 8.7 2 7 2 C7 6.95 7 11.9 7 17 C6.34 17 5.68 17 5 17 C5 12.05 5 7.1 5 2 C3.35 2 1.7 2 0 2 C0 1.34 0 0.68 0 0 Z " fill="#111C50" transform="translate(262,316)"/>
<path d="M0 0 C0.66 0 1.32 0 2 0 C2 4.95 2 9.9 2 15 C4.31 15 6.62 15 9 15 C9 15.66 9 16.32 9 17 C6.03 17 3.06 17 0 17 C0 11.39 0 5.78 0 0 Z " fill="#1C2758" transform="translate(314,316)"/>
<path d="M0 0 C0.66 0 1.32 0 2 0 C2 4.95 2 9.9 2 15 C4.31 15 6.62 15 9 15 C9 15.66 9 16.32 9 17 C6.03 17 3.06 17 0 17 C0 11.39 0 5.78 0 0 Z " fill="#172255" transform="translate(298,316)"/>
<path d="M0 0 C0.66 0 1.32 0 2 0 C2 4.95 2 9.9 2 15 C4.31 15 6.62 15 9 15 C9 15.66 9 16.32 9 17 C6.03 17 3.06 17 0 17 C0 11.39 0 5.78 0 0 Z " fill="#172255" transform="translate(205,316)"/>
<path d="M0 0 C0.99 0.33 1.98 0.66 3 1 C3 2.65 3 4.3 3 6 C2.67 5.34 2.34 4.68 2 4 C1.34 4 0.68 4 0 4 C-0.144375 4.763125 -0.28875 5.52625 -0.4375 6.3125 C-1 9 -1 9 -2 12 C-0.02 12 1.96 12 4 12 C4 12.33 4 12.66 4 13 C1.69 13.33 -0.62 13.66 -3 14 C-3.33 14.99 -3.66 15.98 -4 17 C-4.66 17 -5.32 17 -6 17 C-4.33846988 11.14340094 -2.52958084 5.5409866 0 0 Z " fill="#192456" transform="translate(189,316)"/>
<path d="M0 0 C1.99954746 -0.04254356 4.00041636 -0.04080783 6 0 C7 1 7 1 7.125 3.5 C7 6 7 6 6 7 C4.00041636 7.04080783 1.99954746 7.04254356 0 7 C0 4.69 0 2.38 0 0 Z " fill="#F5F5F7" transform="translate(79,318)"/>
<path d="M0 0 C3.3 0 6.6 0 10 0 C10 0.66 10 1.32 10 2 C8.68 2 7.36 2 6 2 C6 5.96 6 9.92 6 14 C5.34 14 4.68 14 4 14 C4 10.04 4 6.08 4 2 C2.68 2 1.36 2 0 2 C0 1.34 0 0.68 0 0 Z " fill="#43ADA0" transform="translate(274,353)"/>
<path d="M0 0 C2.64 0 5.28 0 8 0 C6.54205607 5.58878505 6.54205607 5.58878505 4.1875 7.375 C1.6107093 8.11122591 -0.33604768 8.35052004 -3 8 C-3.66 7.01 -4.32 6.02 -5 5 C-3.72125 5.04125 -2.4425 5.0825 -1.125 5.125 C1.01871492 5.24212873 1.01871492 5.24212873 3 5 C3.66 4.34 4.32 3.68 5 3 C3.35 2.67 1.7 2.34 0 2 C0 1.34 0 0.68 0 0 Z " fill="#242E5E" transform="translate(348,325)"/>
<path d="M0 0 C1.20628008 2.33214148 2.1654738 4.49642139 3 7 C7.79308342 7.46522293 7.79308342 7.46522293 11.9375 5.5 C12.288125 5.005 12.63875 4.51 13 4 C13.66 4.33 14.32 4.66 15 5 C10.88875453 9.83675937 10.88875453 9.83675937 6.9375 10.5625 C3.29306849 9.86463014 2.09110663 9.05623277 0 6 C-0.25 2.75 -0.25 2.75 0 0 Z " fill="#232D5D" transform="translate(402,323)"/>
<path d="M0 0 C1.20628008 2.33214148 2.1654738 4.49642139 3 7 C7.79308342 7.46522293 7.79308342 7.46522293 11.9375 5.5 C12.288125 5.005 12.63875 4.51 13 4 C13.66 4.33 14.32 4.66 15 5 C10.88875453 9.83675937 10.88875453 9.83675937 6.9375 10.5625 C3.29306849 9.86463014 2.09110663 9.05623277 0 6 C-0.25 2.75 -0.25 2.75 0 0 Z " fill="#232D5D" transform="translate(151,323)"/>
<path d="M0 0 C3.63 0 7.26 0 11 0 C11 0.66 11 1.32 11 2 C9.35 2 7.7 2 6 2 C6 6.95 6 11.9 6 17 C5.67 17 5.34 17 5 17 C5 12.05 5 7.1 5 2 C3.35 2 1.7 2 0 2 C0 1.34 0 0.68 0 0 Z " fill="#061248" transform="translate(95,316)"/>
<path d="M0 0 C0.99 0 1.98 0 3 0 C3.33 2.64 3.66 5.28 4 8 C3.01 7.01 2.02 6.02 1 5 C0.34 6.65 -0.32 8.3 -1 10 C-2.46726798 6.18510326 -1.43336419 3.70988378 0 0 Z " fill="#1C2759" transform="translate(61,316)"/>
<path d="M0 0 C0.66 0 1.32 0 2 0 C2.66 2.31 3.32 4.62 4 7 C2.02 7 0.04 7 -2 7 C-1.34 4.69 -0.68 2.38 0 0 Z " fill="#E0E1E8" transform="translate(189,320)"/>
<path d="M0 0 C1.65 1.65 3.3 3.3 5 5 C4.34 5.66 3.68 6.32 3 7 C2.67 6.34 2.34 5.68 2 5 C1.67 8.96 1.34 12.92 1 17 C0.67 17 0.34 17 0 17 C0 11.39 0 5.78 0 0 Z " fill="#09144A" transform="translate(243,316)"/>
<path d="M0 0 C0.33 0 0.66 0 1 0 C1 5.61 1 11.22 1 17 C-0.32 15.68 -1.64 14.36 -3 13 C-2.67 12.34 -2.34 11.68 -2 11 C-1.67 11.33 -1.34 11.66 -1 12 C-0.67 8.04 -0.34 4.08 0 0 Z " fill="#051047" transform="translate(392,316)"/>
<path d="M0 0 C0.66 0.33 1.32 0.66 2 1 C2.625 4.0625 2.625 4.0625 3 7 C1.35 7 -0.3 7 -2 7 C-1.125 1.125 -1.125 1.125 0 0 Z " fill="#E7E8ED" transform="translate(62,320)"/>
<path d="M0 0 C0.33 0 0.66 0 1 0 C1 5.61 1 11.22 1 17 C0.01 16.67 -0.98 16.34 -2 16 C-2 15.01 -2 14.02 -2 13 C-1.34 13 -0.68 13 0 13 C0 8.71 0 4.42 0 0 Z " fill="#071249" transform="translate(254,316)"/>
<path d="M0 0 C0.99 0.33 1.98 0.66 3 1 C3.625 4.375 3.625 4.375 4 8 C3.34 8.66 2.68 9.32 2 10 C1 8 1 8 1.0625 5.5 C1.28293845 2.82346261 1.28293845 2.82346261 -1 1 C-0.67 0.67 -0.34 0.34 0 0 Z " fill="#283261" transform="translate(84,316)"/>
<path d="M0 0 C2.64 0 5.28 0 8 0 C7.67 1.32 7.34 2.64 7 4 C4.69 3.34 2.38 2.68 0 2 C0 1.34 0 0.68 0 0 Z " fill="#101A4F" transform="translate(348,325)"/>
<path d="M0 0 C3 3.75 3 3.75 3 6 C1.35 6 -0.3 6 -2 6 C-1.34 4.02 -0.68 2.04 0 0 Z " fill="#EAF6F4" transform="translate(251,356)"/>
</svg>
